<?xml version="1.0" standalone="no"?>
<svg version="1.0" xmlns="http://www.w3.org/2000/svg" xmlns:xlink="http://www.w3.org/1999/xlink"
    width="1024" height="1024" viewBox="0 0 1024 1024"
    preserveAspectRatio="xMidYMid meet">

    <g transform="translate(0,1024) scale(0.100000,-0.100000)"
        fill="#000" stroke="none">
        <path
            d="M2664 9474 c-47 -49 -68 -125 -67 -249 0 -117 28 -220 88 -320 47
-78 66 -97 215 -220 151 -123 219 -194 254 -263 30 -58 60 -167 53 -186 -4
-11 -86 -56 -102 -56 -3 0 -23 37 -46 83 -51 100 -112 181 -181 240 -155 129
-294 191 -503 222 -154 23 -196 21 -227 -12 -54 -59 -59 -142 -18 -317 46
-197 115 -323 254 -462 79 -79 104 -98 186 -136 52 -25 145 -58 205 -73 61
-15 114 -31 118 -34 4 -4 -6 -41 -22 -82 -69 -174 -144 -477 -181 -729 -63
-438 -51 -738 41 -1035 26 -85 106 -258 149 -322 21 -30 36 -71 45 -118 8 -39
26 -107 40 -151 45 -136 56 -214 55 -409 0 -124 -6 -220 -19 -310 -11 -71 -22
-164 -26 -205 -22 -272 -77 -455 -231 -767 -93 -189 -105 -229 -81 -267 41
-62 300 -67 372 -8 38 31 73 87 85 132 22 88 30 100 65 100 64 0 81 50 95 272
12 205 39 322 110 483 12 28 46 118 75 200 29 83 69 194 89 248 20 54 36 107
36 117 0 11 1 20 3 20 22 0 156 -55 173 -71 37 -34 47 -113 52 -394 8 -480 7
-598 -7 -660 -26 -117 -83 -299 -132 -420 -55 -138 -60 -174 -27 -205 32 -30
59 -35 188 -35 97 0 121 3 155 21 51 26 91 83 108 154 12 49 17 56 47 65 26 8
38 20 54 55 19 41 21 64 22 260 1 229 5 272 36 390 10 41 37 145 59 230 52
205 167 492 211 527 7 6 69 14 138 17 153 9 303 30 398 56 109 30 69 52 337
-183 147 -128 165 -160 148 -255 -21 -109 -71 -218 -171 -365 -280 -415 -361
-543 -383 -605 -28 -82 17 -113 172 -120 181 -8 273 37 313 153 28 79 28 80
90 85 74 7 86 22 132 170 61 193 106 275 298 535 122 166 146 209 146 268 0
28 -8 64 -20 87 -22 43 -26 70 -10 70 33 0 253 -80 355 -130 164 -79 237 -146
300 -273 119 -243 135 -586 38 -843 -67 -179 -68 -181 -57 -211 13 -39 55 -56
149 -61 101 -5 179 10 238 48 58 36 73 60 93 144 15 59 22 70 58 94 81 54 83
143 11 428 -56 221 -68 337 -59 579 10 272 -1 300 -153 409 -121 87 -194 203
-212 341 -9 63 -8 111 4 224 18 174 19 301 1 401 -8 46 -10 79 -4 86 5 7 30
15 55 19 111 16 205 67 286 154 74 79 90 124 95 271 9 244 2 299 -51 405 -52
104 -229 265 -292 265 -40 0 -45 -17 -38 -125 5 -87 3 -112 -16 -172 -36 -119
-132 -226 -257 -285 -103 -48 -121 -48 -195 7 -273 201 -732 267 -1184 171
-38 -8 -142 -33 -230 -54 -435 -108 -738 -119 -925 -35 -102 46 -190 159 -190
246 0 47 4 47 122 2 159 -60 301 -70 386 -26 20 11 60 39 88 63 28 23 72 55
97 70 56 33 102 94 122 161 34 113 17 150 -134 297 -155 151 -162 167 -190
410 -5 47 -12 93 -16 102 -5 13 15 27 97 69 87 44 117 67 194 143 122 123 170
220 234 473 34 138 23 207 -40 233 -40 17 -77 10 -203 -40 -180 -70 -334 -178
-451 -316 -34 -40 -62 -71 -64 -69 -7 6 40 112 77 173 22 37 81 114 131 172
95 111 156 214 185 314 25 86 18 271 -14 341 -41 92 -98 134 -156 115 -44 -15
-59 -47 -51 -112 19 -167 19 -204 -3 -274 -22 -73 -61 -149 -75 -149 -5 0 -19
29 -31 65 -34 103 -55 141 -116 202 -68 69 -111 82 -159 48 -42 -30 -39 -58
19 -181 59 -126 75 -200 69 -319 -5 -85 -8 -93 -68 -207 -34 -65 -78 -142 -96
-171 l-34 -52 -42 7 c-56 10 -213 10 -260 0 l-37 -8 -35 68 c-20 37 -76 121
-125 187 -129 172 -139 215 -100 427 25 131 21 178 -17 216 -31 31 -74 26
-118 -15 -24 -22 -104 -174 -130 -246 -6 -18 -9 -17 -37 10 -88 84 -128 193
-136 363 -6 113 -8 127 -29 148 -37 37 -89 32 -130 -13z m129 -397 c32 -65 66
-113 114 -164 61 -65 72 -73 105 -73 41 0 51 11 62 70 9 52 66 184 92 217 l23
28 0 -45 c0 -25 -6 -72 -14 -105 -27 -112 -15 -259 28 -340 8 -16 54 -82 102
-145 89 -119 165 -258 165 -302 0 -39 -45 -78 -91 -78 -51 0 -65 22 -95 151
-37 156 -71 219 -174 320 -48 48 -123 113 -166 146 -152 116 -238 237 -263
368 -19 101 0 233 42 283 10 12 13 -9 18 -112 6 -126 7 -129 52 -219z m1690
253 c13 -28 22 -76 25 -131 4 -76 1 -100 -22 -173 -29 -93 -92 -194 -177 -286
-117 -125 -210 -303 -225 -428 -5 -51 -10 -62 -22 -57 -9 3 -38 13 -64 22 -26
8 -48 20 -48 26 0 6 34 70 75 142 95 166 106 197 112 326 7 132 -11 223 -67
334 -22 43 -38 80 -36 82 7 8 77 -79 100 -124 13 -26 36 -88 51 -136 30 -96
50 -116 99 -97 52 19 137 180 157 293 11 67 7 196 -8 257 -6 23 -5 24 12 10
10 -8 27 -35 38 -60z m387 -660 c0 -38 -46 -218 -75 -297 -61 -162 -210 -317
-362 -378 -47 -19 -93 -14 -93 10 0 9 22 46 50 84 27 38 72 119 100 181 55
125 96 184 164 236 51 39 53 57 6 44 -113 -32 -194 -135 -300 -376 -12 -28
-32 -63 -44 -77 l-21 -26 -53 47 c-52 47 -52 48 -41 82 38 109 199 285 343
375 110 68 292 142 319 128 4 -2 7 -17 7 -33z m-2429 -45 c188 -40 383 -164
478 -304 21 -31 64 -108 96 -171 32 -63 66 -128 78 -143 23 -33 94 -87 114
-87 23 0 14 43 -22 99 -33 52 -34 56 -17 74 9 11 28 23 40 28 20 8 29 4 52
-21 54 -58 141 -69 213 -27 55 32 79 68 82 121 3 59 25 68 150 63 171 -8 332
-80 475 -214 109 -102 170 -228 170 -351 0 -57 25 -153 56 -214 14 -27 57 -82
96 -123 l71 -75 -52 0 c-68 0 -106 -34 -116 -102 -10 -65 12 -104 68 -118 65
-17 67 -18 67 -40 0 -28 -26 -77 -48 -89 -61 -32 -156 -21 -271 30 -75 34 -91
36 -91 10 0 -39 134 -109 226 -118 80 -8 45 -25 -54 -25 -59 -1 -94 5 -152 26
-186 67 -184 66 -400 75 -180 8 -213 12 -272 34 -150 55 -250 141 -317 275
-35 69 -38 73 -45 49 -16 -66 70 -218 171 -302 105 -87 208 -127 355 -140 40
-4 78 -8 85 -10 27 -9 -91 -302 -254 -635 -126 -259 -137 -286 -169 -414 -25
-104 -32 -247 -14 -276 12 -20 16 -6 30 100 22 171 76 307 230 585 105 189
135 255 210 475 64 186 81 204 92 102 14 -127 91 -238 202 -292 116 -56 169
-65 401 -65 260 1 369 18 705 109 176 48 317 66 505 66 192 0 284 -10 420 -45
123 -32 173 -55 289 -132 222 -148 352 -317 412 -534 24 -88 29 -257 10 -406
-20 -164 -20 -249 -1 -332 32 -135 131 -272 259 -357 104 -69 100 -54 107
-377 8 -318 14 -371 64 -547 39 -134 56 -279 37 -303 -7 -8 -24 -12 -41 -9
-25 3 -30 0 -40 -29 -6 -17 -11 -40 -11 -50 0 -36 -130 -34 -208 4 -32 15 -33
32 -12 172 17 119 8 340 -19 462 -53 242 -151 388 -331 493 -85 50 -124 67
-325 141 -271 100 -448 230 -566 413 -64 98 -114 250 -119 359 -1 21 -23 2
-37 -30 -23 -55 -13 -172 22 -254 44 -105 44 -104 -12 -118 -26 -7 -120 -40
-208 -73 -205 -77 -257 -93 -385 -118 -124 -25 -369 -42 -387 -28 -7 6 -10 28
-6 62 4 39 -3 86 -27 187 -44 183 -58 231 -70 249 -9 13 -12 12 -25 -5 -18
-23 -15 -63 22 -250 31 -160 27 -185 -59 -370 -71 -151 -115 -268 -146 -380
-12 -44 -42 -155 -67 -248 -58 -211 -67 -291 -59 -498 5 -118 3 -176 -5 -202
-12 -35 -13 -36 -35 -22 -20 14 -24 13 -38 -2 -9 -10 -21 -35 -27 -55 -7 -21
-21 -40 -32 -43 -23 -8 -179 31 -197 49 -11 10 -5 39 28 157 71 251 87 383 69
574 -6 72 -12 236 -14 365 -2 325 -16 369 -179 579 -53 68 -112 151 -131 185
-31 56 -75 177 -90 250 -10 48 -26 16 -32 -65 -4 -60 -1 -86 17 -139 26 -77
86 -182 150 -265 64 -83 66 -87 38 -76 -211 83 -380 203 -520 370 -197 233
-319 473 -380 748 -20 87 -22 127 -22 358 0 269 9 368 55 605 51 264 150 583
201 647 7 9 16 10 28 3 25 -13 43 10 34 44 -8 35 -38 49 -165 81 -322 80 -460
165 -583 358 -49 76 -81 162 -106 287 -23 116 -26 190 -7 209 14 16 129 9 238
-14z m2147 -1448 c14 -11 16 -43 2 -52 -12 -7 -87 12 -95 24 -9 16 6 40 28 43
25 4 46 -1 65 -15z m53 -160 c-10 -9 -11 -8 -5 6 3 10 9 15 12 12 3 -3 0 -11
-7 -18z m2526 -251 c42 -65 63 -141 63 -226 0 -68 -4 -85 -35 -148 -20 -39
-56 -94 -82 -122 -25 -28 -44 -53 -42 -55 8 -8 94 37 122 62 27 27 27 27 27 4
0 -61 -103 -176 -193 -216 -49 -21 -140 -45 -173 -45 -8 0 -28 29 -45 65 -30
64 -88 148 -148 214 l-31 34 72 39 c218 119 328 280 328 482 l0 60 56 -54 c31
-30 67 -73 81 -94z m-4089 -1518 c99 -120 231 -233 355 -304 71 -40 72 -41 71
-80 0 -22 -29 -114 -66 -214 -36 -96 -69 -186 -73 -200 -4 -14 -32 -85 -61
-158 -30 -73 -63 -170 -74 -215 -20 -86 -40 -267 -40 -377 0 -80 -7 -93 -51
-88 -33 3 -35 1 -63 -59 -34 -73 -40 -75 -157 -46 -60 14 -69 19 -69 39 0 12
25 81 55 152 56 131 117 336 135 447 5 33 12 103 15 155 4 52 13 127 20 165
42 220 44 537 4 695 -12 47 -25 93 -31 103 -14 27 1 20 30 -15z m2674 -301
c51 -51 130 -117 175 -146 81 -53 81 -53 88 -105 4 -28 18 -80 32 -115 31 -79
34 -71 -107 -261 -186 -251 -246 -356 -300 -526 -50 -159 -49 -156 -84 -153
-54 3 -64 0 -111 -41 -34 -29 -55 -40 -79 -40 -34 0 -144 34 -159 49 -10 10
14 49 187 301 180 261 246 405 247 541 2 111 -22 146 -219 328 -73 67 -130
126 -127 131 5 7 202 88 290 118 60 21 71 16 167 -81z m-409 -1442 c29 -2 53
-4 55 -5 1 0 -4 -13 -13 -30 -22 -43 -67 -62 -159 -67 -102 -6 -122 5 -105 57
7 19 20 47 30 61 l19 27 61 -19 c33 -10 84 -21 112 -24z m-2419 -64 c48 -11
90 -22 93 -24 12 -12 -22 -50 -60 -68 -70 -31 -197 -21 -197 16 0 30 40 95 58
95 10 0 58 -9 106 -19z m4091 -52 c22 -4 59 -8 83 -9 47 0 52 -11 27 -60 -17
-33 -75 -55 -171 -64 -89 -9 -101 17 -58 123 13 31 16 33 47 26 17 -4 50 -11
72 -16z m-3158 -113 c37 -8 85 -17 106 -20 44 -8 49 -31 13 -65 -29 -27 -81
-40 -157 -41 -74 0 -86 13 -69 77 9 39 23 62 37 63 1 0 32 -6 70 -14z" />
        <path
            d="M2504 8458 c-4 -7 0 -16 10 -22 112 -67 182 -158 226 -294 39 -123
65 -166 137 -232 63 -58 180 -120 226 -120 43 0 29 20 -43 61 -132 74 -180
133 -230 285 -52 156 -131 254 -247 309 -59 28 -69 30 -79 13z" />
        <path
            d="M3595 7765 c-51 -15 -82 -31 -125 -67 -19 -15 -41 -28 -48 -28 -8 0
-12 -6 -9 -12 2 -7 20 -13 39 -13 l36 0 -5 -50 c-6 -61 23 -123 80 -168 71
-58 205 -45 263 26 20 25 27 28 31 17 7 -19 92 -104 98 -99 2 3 -9 31 -25 62
-16 32 -32 79 -35 105 -8 63 -27 103 -71 152 -66 72 -148 100 -229 75z m155
-120 c20 -24 4 -62 -27 -68 -16 -3 -34 -1 -40 5 -14 11 -18 60 -6 71 12 13 60
7 73 -8z" />
        <path
            d="M5517 6454 c-36 -19 -34 -58 5 -87 30 -22 115 -34 172 -23 65 12 71
71 13 107 -40 24 -148 26 -190 3z" />
        <path d="M5982 6434 c-66 -46 37 -144 151 -144 74 0 88 37 35 90 -62 62 -142
85 -186 54z" />
        <path
            d="M5100 6378 c-68 -25 -71 -86 -5 -114 44 -18 79 -18 143 1 53 16 73
35 65 65 -12 44 -134 72 -203 48z" />
        <path
            d="M4608 6293 c-23 -6 -33 -45 -19 -71 13 -24 71 -53 121 -59 48 -7 101
11 118 38 12 19 11 24 -10 46 -13 14 -37 32 -55 39 -31 13 -117 17 -155 7z" />
        <path
            d="M4165 6260 c-22 -36 38 -115 107 -144 56 -24 86 -21 100 10 16 34 -2
67 -60 111 -36 27 -53 33 -92 33 -27 0 -52 -5 -55 -10z" />
        <path
            d="M5433 6185 c-45 -19 -44 -53 2 -93 43 -38 92 -48 160 -33 68 15 85
33 64 69 -35 62 -149 91 -226 57z" />
        <path
            d="M5928 6150 c-33 -20 -22 -67 25 -115 76 -80 187 -86 195 -11 8 68
-159 163 -220 126z" />
        <path
            d="M6362 6128 c-20 -25 5 -88 58 -141 43 -43 52 -48 87 -45 34 3 38 6
41 32 5 40 -13 77 -57 120 -43 42 -108 59 -129 34z" />
        <path
            d="M4996 6014 c-23 -23 -20 -47 12 -76 30 -29 89 -49 124 -42 58 12 97
28 103 42 8 22 -22 62 -60 78 -48 20 -159 19 -179 -2z" />
        <path
            d="M4561 5982 c-16 -12 -9 -53 14 -76 20 -20 91 -39 119 -32 11 3 30 12
41 20 16 12 18 19 9 32 -24 40 -150 78 -183 56z" />
        <path
            d="M5692 5868 c-18 -18 -15 -32 13 -58 16 -15 37 -23 62 -24 33 -1 38 2
41 22 8 51 -80 96 -116 60z" />
        <path
            d="M6231 5776 c-18 -22 -3 -82 33 -128 40 -52 76 -73 109 -64 85 21 -8
206 -103 206 -15 0 -33 -6 -39 -14z" />
        <path d="M5323 5723 c-23 -4 -37 -28 -27 -45 22 -35 125 -39 145 -6 19 31 -57
65 -118 51z" />
        <path
            d="M5950 5562 c0 -17 9 -37 23 -49 47 -42 87 -39 87 8 0 22 -8 34 -32
49 -18 11 -43 20 -55 20 -19 0 -23 -6 -23 -28z" />
    </g>
</svg>