<svg xmlns="http://www.w3.org/2000/svg" viewBox="0 0 76.32 97.95">
    <path
        d="M55.92 73.25c.4-2.9-.6-12.2-.6-12.2l-3.8 2v7.7L54.62 90l1.9 3.1h3.8l-2.9-3.9c.1.05-1.8-13.05-1.5-15.95zM4.52 81.65a29.75 29.75 0 0 1-.8-3.2 4.81 4.81 0 0 1 .6-3.3 26.14 26.14 0 0 0 3.2-10.1 23.49 23.49 0 0 0-1.1-4l-1-2.5s.4 6.1-.6 9.1c-.7 2.1-2.8 3.4-4.1 4.7a2.58 2.58 0 0 0-.7 2.2c.8 4.8 1.3 17.2 1.3 17.2l1.5.4V94h4.6c-.8-1.7-2-9.6-2-9.6z"
        fill="#1890ff"></path>
    <path
        d="M75.62 4.25c-.5-1.1.2-5.7-1.1-3.8s.6 6.1 0 7.5a9.24 9.24 0 0 1-2.7 2.7s-1.5-1.5-2.5-2.3-.2-3.1-1.3-3.1-1.2 3.1.4 4.6a11.51 11.51 0 0 1 2.2 3.2c.3 5.5-6.7 6.6-6.7 6.6s.7-3.2-.4-5.3-2-1.5-1.3 1.9c.5 2.8-1 6-1.6 7.1a9.52 9.52 0 0 0-2.5-.3 13.79 13.79 0 0 0-2.2.2c-.6-1.1-2.1-4.2-1.5-7 .7-3.4-.3-4-1.3-1.9s-.4 5.3-.4 5.3-7-1.1-6.7-6.6a17.7 17.7 0 0 1 2.2-3.2c1.6-1.6 1.5-4.6.4-4.6s-.4 2.3-1.3 3.1-2.5 2.3-2.5 2.3A8.05 8.05 0 0 1 42.12 8c-.6-1.3 1.3-5.5 0-7.5s-.7 2.7-1.1 3.8c-.6 1.5-1.6 3.3 1 6.8A12 12 0 0 1 44 15c.7 2.5 2.9 6.4 9.1 7.3l.3 1.8a11.62 11.62 0 0 0-1.1.7s-5.2-3.6-7.9-3.9.1 6.6 3.9 6.9 3.2.8 3.2.8c-1.1 3.8-1.9 8.2-2.3 9.5a.76.76 0 0 1-.2.4 3.76 3.76 0 0 1-4.5 1.5c-1.3-.5-7.2.2-9.5.3-4.6.2-8.4-1.1-18.9-1.7-8.4-.5-11.7 5.5-11.7 5.5s-3.9 3-4.2 5.7c-.5 4 2.3 9.4 2.3 9.4 1-2.1 1.1-2.1 1-4.3-.3-2.1.7-6.1.7-6.1-.2 4.5 4.4 11.9 5 15.1.4 2.4-.8 8.7-3.2 12.8a4.27 4.27 0 0 0-.3 3.8L9 89.25l1.2 6.3h1.1l.9 2.4h5.2a.38.38 0 0 0 .3-.5 52.19 52.19 0 0 1-2.6-4.7c-.6-1.5-3.8-8.4-3.8-10.7v-.5a10.71 10.71 0 0 1 2.6-6.3c6-7.2 9.8-11.6 9.8-11.6s9.3.6 17.2.4a21.16 21.16 0 0 0 1.1 2.1c1.6 2.8 5 16.4 5 17.2s1.2 11.4 1.7 12.2 1.5 2.5 3.2 2.3c1-.1 2.2-.1 3-.1a.33.33 0 0 0 .2-.6c-1.2-1.1-3.5-3.4-3.5-5.1 0-2.3-1.1-6.9-1-11.6.2-3.9-1-13.4-.7-18.3a18 18 0 0 0 4.4-2.4c7.9-3.4 9.8-13.2 10.3-17.8a4.91 4.91 0 0 1-4.5-.4c4.4.1 4.6-1.8 4.6-2a6.43 6.43 0 0 0 1.3-2.7l-.8-4.6a5.8 5.8 0 0 0 1-3.7c5.3-2.5 4.2-7.1 4.2-7.1l-6.2 3.3a3.4 3.4 0 0 0-1-.6l.3-1.9c6.2-.9 8.3-4.8 9.1-7.3a12 12 0 0 1 2-3.9c2.62-3.5 1.62-5.4 1.02-6.8zm-65.5 42.5c-.8.2-1.5-.1-1.6-.6s.4-1.1 1.2-1.2 1.5.1 1.6.6-.5 1-1.2 1.2zm6.8-2.8c-1.3-.1-2.3-.9-2.2-1.7s1.2-1.5 2.5-1.4 2.3.9 2.2 1.7-1.2 1.5-2.5 1.45zm2.5 5c-.8 0-1.4-.4-1.4-.9s.6-.9 1.4-.9 1.4.4 1.4.9-.6.95-1.4.95zm5.8-3.1c-.8 0-1.4-.4-1.4-.9s.6-.9 1.4-.9 1.4.4 1.4.9-.62.9-1.4.9zm5.8-1.2c-1.1 0-2-.6-2-1.3s.9-1.3 2-1.3 2 .6 2 1.3-.9 1.3-2.02 1.3zm5.8 4.3c-.8 0-1.4-.4-1.4-.9s.6-.9 1.4-.9 1.4.4 1.4.9-.7.95-1.4.95zm4.7-4.1c-.8 0-1.4-.4-1.4-.9s.6-.9 1.4-.9 1.4.4 1.4.9-.6.9-1.4.9zm12.4-13.7c-.8-.4-.8-1.7-.8-1.7a1.71 1.71 0 0 1 2.6.9s-.8 1.2-1.8.8zm10.5-1.6a1.33 1.33 0 0 1 1.3.4s-.8 2-2.2.8a1.31 1.31 0 0 1 .9-1.2zm-1 6.6c1.4.2.4 1.2.4 1.2l-.1-.4c.1-.2.1-.6-.4-.2s0 1 0 1a1.05 1.05 0 0 1-1.1.5c-.8-.1-1-.4-1-.4s.4-.4.3-.6-.8-.8-.9-.5a1.1 1.1 0 0 0 .1.7l-.1.3s-.7-.7-.5-1.1a3.65 3.65 0 0 1 3.3-.5z"
        fill="#1890ff">
    </path>
</svg>