<?xml version="1.0" encoding="UTF-8"?>
<svg width="726px" height="703px" viewBox="0 0 726 703" version="1.1" xmlns="http://www.w3.org/2000/svg" xmlns:xlink="http://www.w3.org/1999/xlink">
    <title>logo </title>
    <g id="正式版" stroke="none" stroke-width="1" fill="none" fill-rule="evenodd">
        <g id="logo-" transform="translate(0.2622, 0.086)" fill-rule="nonzero">
            <path d="M131.627836,573.174047 L139.767836,571.144047 L142.767836,570.384047 C143.341169,570.23738 143.334503,570.194047 142.747836,570.254047 C141.654503,570.360714 140.661169,570.65738 139.767836,571.144047 L131.627836,573.174047 C131.087836,573.260714 130.607836,573.10738 130.187836,572.714047 C105.117836,549.264047 82.6178359,520.484047 65.8778359,489.304047 C34.8378359,431.490714 21.9011692,369.680714 27.0678359,303.874047 C29.9945025,266.56738 39.4578359,230.050714 55.4578359,194.324047 C58.3845025,187.790714 61.3845025,181.690714 64.4578359,176.024047 C97.7778359,114.63738 145.044503,68.0740471 206.257836,36.3340471 C272.037836,2.2240471 348.197836,-7.8859529 421.657836,6.0740471 C428.437836,7.36071377 435.034503,8.86738044 441.447836,10.5940471 C503.794503,27.3673804 556.777836,59.0907138 600.397836,105.764047 C649.957836,158.794047 681.747836,229.254047 687.737836,302.374047 C693.011169,366.694047 681.061169,427.23738 651.887836,484.004047 C634.187836,518.444047 609.827836,549.784047 581.387836,575.874047 C581.13313,576.104893 580.776131,576.191324 580.437836,576.104047 C555.191169,569.59738 530.224503,564.17738 505.537836,559.844047 C504.737836,559.704047 504.677836,559.40738 505.357836,558.954047 C556.207836,525.354047 595.047836,476.584047 614.547836,418.644047 C633.797836,361.454047 633.617836,300.104047 614.117836,242.894047 C592.847836,180.464047 549.027836,129.144047 492.297836,95.8340471 C491.677836,95.4673804 491.314503,94.9307138 491.207836,94.2240471 C488.094503,73.7440471 482.584503,54.2807138 474.677836,35.8340471 C474.457836,35.3273804 474.297836,35.3473804 474.197836,35.8940471 C471.437836,50.7940471 467.204503,65.4840471 461.497836,79.9640471 C461.431143,80.1332132 461.299474,80.2686205 461.132241,80.3400233 C460.965009,80.4114261 460.776145,80.4128752 460.607836,80.3440471 C419.874503,63.7507138 377.487836,57.3173804 333.447836,61.0440471 C271.877836,66.2440471 214.847836,92.7940471 170.317836,134.934047 C120.687836,181.894047 89.4978359,248.234047 86.3578359,317.384047 C83.7711692,374.45738 97.3845025,427.030714 127.197836,475.104047 C147.257836,507.444047 174.487836,535.314047 205.807836,556.464047 C206.647836,557.030714 207.591169,557.230714 208.637836,557.064047 C264.371169,548.404047 321.031169,545.090714 378.617836,547.124047 C426.237836,548.804047 472.594503,554.240714 517.687836,563.434047 C539.381169,567.860714 559.694503,572.320714 578.627836,576.814047 C579.401169,577.000714 579.711169,577.484047 579.557836,578.264047 C575.797836,597.654047 583.347836,618.664047 595.377836,634.524047 C595.675546,634.916285 596.130409,635.154721 596.617836,635.174047 C633.017836,636.644047 668.557836,631.914047 702.927836,620.604047 C703.534503,620.404047 703.707836,620.594047 703.447836,621.174047 C702.774503,622.700714 701.967836,624.120714 701.027836,625.434047 C696.947836,631.140714 692.791169,636.81738 688.557836,642.464047 C686.851169,644.744047 685.324503,647.81738 683.977836,651.684047 C681.584503,658.524047 683.554503,663.71738 689.887836,667.264047 C694.387836,669.790714 698.767836,671.72738 703.027836,673.074047 C710.121169,675.314047 717.201169,677.724047 724.267836,680.304047 C724.641169,680.43738 724.904503,680.64738 725.057836,680.934047 C725.137836,681.074047 725.098979,681.164047 724.947836,681.204047 C695.127836,688.494047 665.877836,696.104047 636.137836,699.824047 C609.824503,703.110714 583.621169,702.624047 557.527836,698.364047 C556.574503,698.204047 555.664503,697.930714 554.797836,697.544047 C554.491169,697.410714 554.314503,697.17738 554.267836,696.844047 C554.161169,696.03738 554.071169,694.644047 553.997836,692.664047 C553.411169,676.53738 552.944503,660.65738 552.597836,645.024047 C552.591169,644.670714 552.414503,644.454047 552.067836,644.374047 C533.721169,640.114047 514.981169,636.414047 495.847836,633.274047 C495.314503,633.18738 494.774503,633.140714 494.227836,633.134047 C493.894503,633.134047 493.587836,633.230714 493.307836,633.424047 C492.454503,634.044047 491.567836,634.554047 490.647836,634.954047 C459.047836,648.834047 426.464503,657.520714 392.897836,661.014047 C334.157836,667.120714 277.794503,658.394047 223.807836,634.834047 C223.447836,634.674047 223.077836,634.624047 222.697836,634.684047 C202.791169,637.69738 183.144503,641.63738 163.757836,646.504047 C158.557836,647.810714 153.521169,649.084047 148.647836,650.324047 C145.707836,651.064047 142.621169,651.940714 139.387836,652.954047 C136.227836,653.940714 133.147836,654.864047 130.147836,655.724047 C130.074503,655.744047 130.077836,655.760714 130.157836,655.774047 C130.284503,655.78738 130.414503,655.79738 130.547836,655.804047 C130.681169,655.810714 130.811169,655.79738 130.937836,655.764047 C141.991169,652.570714 153.111169,649.53738 164.297836,646.664047 C164.751169,646.550714 164.984503,646.724047 164.997836,647.184047 C165.087836,649.514047 164.667836,651.834047 164.647836,654.204047 C164.527836,669.244047 164.427836,683.344047 164.347836,696.504047 C164.345919,696.8882 164.074425,697.218169 163.697836,697.294047 C109.107836,708.384047 51.7478359,702.954047 0.607835871,680.514047 C0.387835871,680.420714 0.214502538,680.270714 0.087835871,680.064047 C-0.0014919285,679.906718 -0.0275520329,679.715324 0.0323094283,679.541532 C0.0921708895,679.367741 0.226061012,679.229471 0.397835871,679.164047 C6.7311692,676.830714 13.4311692,674.404047 20.4978359,671.884047 C25.7978359,669.994047 34.9578359,665.514047 34.0478359,659.054047 C31.8878359,643.754047 21.2978359,632.524047 15.1478359,618.974047 C14.7678359,618.140714 14.9911692,617.914047 15.8178359,618.294047 C23.4645025,621.820714 31.6011692,624.620714 40.2278359,626.694047 C60.8378359,631.644047 82.0578359,633.774047 103.157836,634.584047 C103.39445,634.597248 103.617749,634.46797 103.727836,634.254047 C112.421169,616.44738 120.981169,598.434047 129.407836,580.214047 C130.467836,577.914047 130.777836,575.524047 131.627836,573.174047 Z M148.537836,569.014047 C148.737836,568.974047 148.924503,568.894047 149.097836,568.774047 C149.131169,568.754047 149.127836,568.750714 149.087836,568.764047 C148.027836,569.05738 146.957836,569.31738 145.877836,569.544047 C145.877836,569.544047 145.871169,569.544047 145.857836,569.544047 C145.857836,569.544047 145.857836,569.544047 145.857836,569.544047 C146.897836,569.574047 147.577836,569.204047 148.537836,569.014047 Z M297.677836,625.614047 L297.667836,625.864047 C297.667836,625.897184 297.699176,625.924047 297.737836,625.924047 C330.747836,624.144047 363.137836,623.374047 396.987836,624.474047 C425.207836,625.38738 453.277836,627.674047 481.197836,631.334047 C481.324503,631.34738 481.397836,631.290714 481.418669,631.164047 L481.418669,631.154047 C481.424503,631.080714 481.391169,631.03738 481.317836,631.024047 C462.957836,628.47738 445.264503,626.46738 428.237836,624.994047 C408.877836,623.320714 387.061169,622.310714 362.787836,621.964047 C356.294503,621.870714 349.744503,622.034047 343.137836,622.454047 C332.957836,623.094047 322.224503,623.784047 310.937836,624.524047 C308.831169,624.664047 306.621169,624.91738 304.307836,625.284047 C302.167836,625.630714 299.977836,625.720714 297.737836,625.554047 C297.697836,625.54738 297.677836,625.56738 297.677836,625.614047 Z M558.727836,646.224047 C565.561169,648.064047 572.394503,649.93738 579.227836,651.844047 C588.754503,654.504047 597.644503,657.234047 605.897836,660.034047 C612.817836,662.380714 619.731169,664.734047 626.637836,667.094047 C629.237836,667.984047 631.517836,669.204047 633.967836,670.304047 C634.003212,670.318875 634.041911,670.326502 634.071698,670.324517 C634.101484,670.322531 634.118675,670.311178 634.117865,670.294047 L634.117865,669.904047 C634.11683,669.807158 634.057662,669.720377 633.967836,669.684047 C623.514503,665.23738 612.857836,661.340714 601.997836,657.994047 C588.271169,653.760714 574.434503,649.910714 560.487836,646.444047 C559.607836,646.224047 559.021169,646.150714 558.727836,646.224047 C557.087836,645.530714 555.561169,645.144047 554.147836,645.064047 C553.414503,645.024047 553.407836,645.080714 554.127836,645.234047 L558.727836,646.224047 Z M607.297836,673.694047 C607.277836,673.66738 607.254503,673.644047 607.227836,673.624047 C607.127836,673.57738 607.024503,673.570714 606.917836,673.604047 C604.264503,674.45738 601.727836,675.16738 599.307836,675.734047 C597.314503,676.200714 595.627836,676.660714 594.247836,677.114047 C592.574503,677.66738 590.904503,678.22738 589.237836,678.794047 C577.637836,682.700714 566.894503,688.24738 557.007836,695.434047 C556.914503,695.500714 556.901169,695.580714 556.967836,695.674047 L556.967836,695.684047 C557.047836,695.790714 557.141169,695.80738 557.247836,695.734047 C566.407836,689.154047 576.311169,683.910714 586.957836,680.004047 C593.691169,677.530714 600.667836,675.454047 607.887836,673.774047 C608.254503,673.68738 608.251169,673.620714 607.877836,673.574047 C607.791169,673.56738 607.717836,673.604047 607.657836,673.684047 C607.544503,673.830714 607.424503,673.834047 607.297836,673.694047 Z M134.007836,681.964047 C130.734503,680.824047 127.611169,679.860714 124.637836,679.074047 C122.544503,678.520714 120.451169,677.944047 118.357836,677.344047 C116.284503,676.750714 114.261169,676.290714 112.287836,675.964047 C109.107836,675.444047 105.921169,674.840714 102.727836,674.154047 C102.661169,674.140714 102.621169,674.16738 102.607836,674.234047 C102.587836,674.36738 102.581169,674.39738 102.587836,674.324047 C102.601169,674.27738 102.631169,674.260714 102.677836,674.274047 C106.971169,675.200714 111.437836,676.224047 116.077836,677.344047 C128.744503,680.384047 141.127836,684.864047 153.227836,690.784047 C153.361169,690.844047 153.404503,690.80738 153.357836,690.674047 C153.337836,690.620714 153.304503,690.600714 153.257836,690.614047 C153.217836,690.620714 153.184503,690.61738 153.157836,690.604047 C146.944503,687.13738 140.561169,684.25738 134.007836,681.964047 Z" id="形状" fill="#093E92"></path>
            <path d="M301.507836,546.984047 C297.374503,547.284047 293.121169,547.52738 288.747836,547.714705 C288.347878,547.730174 287.99756,547.448211 287.927836,547.054047 C283.101169,519.254047 278.264503,490.12738 273.417836,459.674047 C269.797836,436.86738 267.021169,414.090714 265.087836,391.344047 C263.847836,376.81738 263.734503,362.354047 264.747836,347.954047 C265.417836,338.364047 267.647836,326.784047 273.787836,318.674047 C288.201169,299.62738 304.054503,281.084047 321.347836,263.044047 C337.274503,246.430714 353.627836,229.78738 370.407836,213.114047 C390.454503,193.18738 407.757836,174.03738 422.317836,155.664047 C447.517836,123.874047 465.527836,88.8440471 474.987836,49.1540471 C475.241169,48.0940471 475.561169,48.0740471 475.947836,49.0940471 C482.967836,67.5673804 487.134503,86.0173804 488.447836,104.444047 C492.947836,167.484047 458.637836,220.944047 417.307836,266.894047 C403.974503,281.72738 389.084503,297.824047 372.637836,315.184047 C364.631169,323.63738 356.947836,332.250714 349.587836,341.024047 C336.667836,356.414047 325.647836,371.594047 317.277836,389.184047 C315.817836,392.244047 314.807836,395.59738 314.247836,399.244047 C311.747836,415.364047 313.057836,432.074047 315.807836,449.834047 C317.767836,462.474047 319.927836,474.170714 322.287836,484.924047 C326.587836,504.53738 330.731169,524.37738 334.717836,544.444047 C334.788919,544.806455 334.697402,545.181717 334.467838,545.469154 C334.238275,545.756591 333.894167,545.926775 333.527836,545.934047 C327.007836,546.06738 320.594503,546.210714 314.287836,546.364047 C310.241169,546.464047 305.981169,546.670714 301.507836,546.984047 Z" id="路径" fill="#093E92"></path>
            <path d="M493.327836,287.014047 C483.457836,309.364047 468.627836,330.474047 453.367836,349.054047 C443.387836,361.20738 432.521169,374.360714 420.767836,388.514047 C405.407836,407.024047 391.497836,426.854047 381.617836,446.614047 C375.667836,458.534047 374.857836,474.314047 375.487836,487.884047 C376.307836,505.630714 378.664503,524.78738 382.557836,545.354047 C382.602905,545.596072 382.53685,545.84554 382.377915,546.033547 C382.218981,546.221555 381.983986,546.328208 381.737836,546.324164 L350.987836,545.584047 C350.416429,545.571765 349.930138,545.164444 349.817836,544.604047 C345.417836,522.074047 339.327836,499.204047 334.387836,477.654047 C329.947836,458.294047 326.247836,435.964047 328.057836,417.414047 C329.491169,402.774047 334.394503,390.250714 342.767836,379.844047 C346.434503,375.284047 350.757836,370.79738 355.737836,366.384047 C364.191169,358.87738 372.347836,351.63738 380.207836,344.664047 C426.877836,303.214047 467.007836,255.074047 502.717836,204.044047 C503.317836,203.190714 503.697836,203.27738 503.857836,204.304047 C508.437836,233.170714 504.927836,260.740714 493.327836,287.014047 Z" id="路径" fill="#093E92"></path>
            <path d="M148.457836,321.794047 C136.457836,318.04738 124.544503,317.700714 112.717836,320.754047 C110.924503,321.214047 109.571169,322.274047 108.657836,323.934047 C106.197836,328.400714 103.881169,332.574047 101.707836,336.454047 C101.623471,336.599488 101.460993,336.682643 101.295265,336.665198 C101.129536,336.647753 100.992713,336.533093 100.947836,336.374047 L90.4778359,301.664047 C90.406974,301.43195 90.4328428,301.181073 90.5495747,300.96832 C90.6663066,300.755566 90.8640081,300.598969 91.0978359,300.534047 L148.487836,284.764047 C149.089099,284.602461 149.615516,284.238562 149.977836,283.734047 C158.467836,271.904047 174.117836,265.814047 189.117836,265.034047 C192.744503,264.84738 197.561169,265.28738 203.567836,266.354047 C231.281169,271.294047 258.214503,278.534047 284.367836,288.074047 C284.511242,288.12775 284.617495,288.250694 284.649857,288.400367 C284.682219,288.55004 284.636246,288.705897 284.527836,288.814047 C273.347836,300.14738 265.534503,313.810714 261.087836,329.804047 C253.777836,356.074047 256.967836,383.264047 259.617836,410.244047 C259.684503,410.89738 259.477836,411.004047 258.997836,410.564047 C247.424503,399.964047 236.177836,389.504047 225.257836,379.184047 C221.707836,375.834047 217.387836,371.414047 216.817836,366.434047 C216.511169,363.76738 216.201169,361.05738 215.887836,358.304047 C215.537836,355.314047 213.937836,352.614047 211.027836,351.744047 C195.181169,346.99738 179.874503,342.380714 165.107836,337.894047 C163.987836,337.560714 162.907836,337.51738 161.867836,337.764047 C148.747836,340.924047 135.214503,341.04738 121.267836,338.134047 C120.527836,337.980714 120.491169,337.724047 121.157836,337.364047 L148.537836,322.684047 C148.709617,322.588762 148.80993,322.400609 148.792475,322.206427 C148.77502,322.012245 148.643193,321.849793 148.457836,321.794047 L148.457836,321.794047 Z M184.647836,295.504047 C187.381169,295.650714 190.111169,295.67738 192.837836,295.584047 C197.047836,295.434047 201.657836,293.834047 201.737836,288.754047 C201.897836,278.494047 192.827836,276.944047 184.857836,278.254047 C182.924503,278.56738 181.011169,279.26738 179.117836,280.354047 C170.111169,285.520714 161.657836,291.09738 153.757836,297.084047 C153.417836,297.33738 153.171169,297.64738 153.017836,298.014047 C152.95411,298.158739 152.984045,298.327589 153.093628,298.441555 C153.203211,298.555521 153.370757,298.592052 153.517836,298.534047 C156.691169,297.374047 159.957836,296.600714 163.317836,296.214047 C170.624503,295.36738 177.734503,295.130714 184.647836,295.504047 Z" id="形状" fill="#093E92"></path>
            <path d="M184.647836,295.504047 C177.734503,295.130714 170.624503,295.36738 163.317836,296.214047 C159.957836,296.600714 156.691169,297.374047 153.517836,298.534047 C153.370757,298.592052 153.203211,298.555521 153.093628,298.441555 C152.984045,298.327589 152.95411,298.158739 153.017836,298.014047 C153.171169,297.64738 153.417836,297.33738 153.757836,297.084047 C161.657836,291.09738 170.111169,285.520714 179.117836,280.354047 C181.011169,279.26738 182.924503,278.56738 184.857836,278.254047 C192.827836,276.944047 201.897836,278.494047 201.737836,288.754047 C201.657836,293.834047 197.047836,295.434047 192.837836,295.584047 C190.111169,295.67738 187.381169,295.650714 184.647836,295.504047 Z M185.944236,295.040247 C188.606744,294.396114 189.925038,290.401386 188.888736,286.117747 C187.852403,281.834145 184.853938,278.883764 182.191436,279.527847 C179.528928,280.171981 178.210634,284.166709 179.246936,288.450347 C180.283268,292.733949 183.281733,295.68433 185.944236,295.040247 L185.944236,295.040247 Z" id="形状" fill="#E5071A"></path>
            <ellipse id="椭圆形" fill="#093E92" transform="translate(184.0678, 287.284) rotate(76.4) translate(-184.0678, -287.284)" cx="184.067836" cy="287.284047" rx="7.98" ry="4.96"></ellipse>
            <path d="M432.227836,507.654047 C427.427836,520.144047 426.217836,534.654047 426.917836,548.344047 C426.926704,548.534045 426.8544,548.718858 426.718954,548.852396 C426.583509,548.985934 426.397689,549.055609 426.207836,549.045288 L396.877836,547.074047 C396.504503,547.04738 396.277836,546.850714 396.197836,546.484047 C392.367836,527.824047 388.797836,508.934047 388.197836,490.034047 C387.971169,482.88738 388.784503,476.37738 390.637836,470.504047 C391.191169,468.73738 391.694503,466.884047 392.147836,464.944047 C392.821169,462.070714 394.134503,459.244047 396.087836,456.464047 C399.947836,450.95738 403.994503,445.83738 408.227836,441.104047 C417.814503,430.384047 428.107836,418.914047 439.107836,406.694047 C465.114503,377.80738 488.494503,347.670714 509.247836,316.284047 C509.614503,315.724047 509.861169,315.774047 509.987836,316.434047 C511.541169,324.46738 512.507836,332.374047 512.887836,340.154047 C514.147836,366.100714 507.504503,390.620714 492.957836,413.714047 C482.517836,430.304047 469.517836,445.974047 457.857836,461.614047 C446.847836,476.384047 438.557836,491.204047 432.227836,507.654047 Z" id="路径" fill="#093E92"></path>
            <path d="M148.537836,569.014047 C147.577836,569.204047 146.897836,569.574047 145.857836,569.544047 C145.857836,569.544047 145.857836,569.544047 145.857836,569.544047 C145.871169,569.544047 145.877836,569.544047 145.877836,569.544047 C146.957836,569.31738 148.027836,569.05738 149.087836,568.764047 C149.127836,568.750714 149.131169,568.754047 149.097836,568.774047 C148.924503,568.894047 148.737836,568.974047 148.537836,569.014047 Z" id="路径" fill="#FFFFFF"></path>
            <path d="M139.767836,571.144047 C140.661169,570.65738 141.654503,570.360714 142.747836,570.254047 C143.334503,570.194047 143.341169,570.23738 142.767836,570.384047 L139.767836,571.144047 Z" id="路径" fill="#FFFFFF"></path>
            <path d="M139.767836,571.144047 L131.627836,573.174047 L139.767836,571.144047 Z" id="路径" fill="#FFFFFF"></path>
        </g>
    </g>
</svg>